<svg version="1.2" xmlns="http://www.w3.org/2000/svg" viewBox="0 0 20 16" width="20" height="16">
	<style>
		.s0 { fill: #ffffff } 
	</style>
	<path class="s0" d="m18.83 0c-1.91 0.11-5.69 0.52-8.02 1.99-0.16 0.1-0.25 0.28-0.25 0.47v12.99c0 0.42 0.43 0.68 0.8 0.48 2.41-1.24 5.88-1.58 7.6-1.67 0.58-0.03 1.04-0.52 1.04-1.1v-12.06c0-0.63-0.53-1.14-1.17-1.1zm-9.64 1.99c-2.33-1.47-6.11-1.88-8.02-1.99-0.64-0.04-1.17 0.47-1.17 1.1v12.06c0 0.58 0.46 1.07 1.04 1.1 1.72 0.09 5.2 0.43 7.6 1.68 0.37 0.19 0.8-0.07 0.8-0.48v-13.01q0-0.3-0.25-0.46z"/>
</svg>