<svg width="20" height="16" viewBox="0 0 20 16" fill="none" xmlns="http://www.w3.org/2000/svg">
<path d="M18.8274 0.0019395C16.9246 0.11301 13.1426 0.517294 10.8078 1.98729C10.6467 2.08872 10.5554 2.26907 10.5554 2.45764V15.4529C10.5554 15.8654 10.9939 16.1261 11.3637 15.9347C13.7659 14.6912 17.2399 14.3519 18.9576 14.259C19.5441 14.2272 20 13.7437 20 13.164V1.09836C20.0003 0.465866 19.467 -0.0352032 18.8274 0.0019395ZM9.19217 1.98729C6.85776 0.517294 3.07575 0.113368 1.17294 0.0019395C0.533343 -0.0352032 0 0.465866 0 1.09836V13.1644C0 13.7444 0.455911 14.2279 1.04238 14.2594C2.76081 14.3522 6.23657 14.6919 8.63869 15.9361C9.00745 16.1272 9.44461 15.8669 9.44461 15.4554V2.45121C9.44461 2.26229 9.35364 2.08907 9.19217 1.98729Z" fill="black"/>
</svg>
