<svg version="1.2" xmlns="http://www.w3.org/2000/svg" viewBox="0 0 20 20" width="20" height="20">
	<style>
		.s0 { fill: #ffffff } 
	</style>
	<path class="s0" d="m10 16.25c4.49 0 8.13-3.64 8.13-8.13-0.01-4.48-3.64-8.12-8.13-8.12-4.49 0-8.13 3.64-8.13 8.13 0.01 4.48 3.64 8.12 8.13 8.12zm-0.87-12.45v-0.65c0-0.36 0.29-0.65 0.65-0.65h0.43c0.36 0 0.65 0.29 0.65 0.65v0.66c0.61 0.03 1.19 0.24 1.68 0.6 0.22 0.16 0.25 0.48 0.05 0.67l-0.64 0.61c-0.15 0.14-0.37 0.15-0.54 0.04q-0.32-0.2-0.7-0.2h-1.52c-0.35 0-0.64 0.32-0.64 0.71 0 0.32 0.2 0.61 0.48 0.69l2.43 0.73c1 0.3 1.71 1.27 1.71 2.35 0 1.33-1.03 2.4-2.31 2.44v0.65c0 0.36-0.29 0.65-0.65 0.65h-0.43c-0.36 0-0.65-0.29-0.65-0.65v-0.66c-0.61-0.03-1.19-0.24-1.68-0.6-0.22-0.16-0.24-0.48-0.05-0.67l0.64-0.61c0.15-0.14 0.37-0.15 0.55-0.04q0.31 0.2 0.69 0.2h1.52c0.35 0 0.64-0.32 0.64-0.71 0-0.32-0.2-0.61-0.48-0.69l-2.43-0.73c-1-0.3-1.71-1.27-1.71-2.35 0.01-1.33 1.04-2.4 2.31-2.44zm9.62 9.95h-1.27c-0.77 1.02-1.74 1.86-2.85 2.5h2.49c0.21 0 0.38 0.14 0.38 0.31v0.63c0 0.17-0.17 0.31-0.38 0.31h-14.24c-0.21 0-0.38-0.14-0.38-0.31v-0.63c0-0.17 0.17-0.31 0.38-0.31h2.49c-1.11-0.64-2.08-1.48-2.85-2.5h-1.27c-0.69 0-1.25 0.56-1.25 1.25v3.75c0 0.69 0.56 1.25 1.25 1.25h17.5c0.69 0 1.25-0.56 1.25-1.25v-3.75c0-0.69-0.56-1.25-1.25-1.25z"/>
</svg>