<svg version="1.2" xmlns="http://www.w3.org/2000/svg" viewBox="0 0 20 15" width="20" height="15">
	<style>
		.s0 { fill: #ffffff } 
	</style>
	<path class="s0" d="m9.73 3.89l-6.4 5.09v5.48q0.01 0.22 0.17 0.38 0.16 0.16 0.39 0.16l3.89-0.01q0.23 0 0.39-0.16 0.16-0.16 0.16-0.38v-3.2q0.01-0.22 0.17-0.38 0.16-0.15 0.39-0.16h2.22q0.23 0.01 0.39 0.16 0.16 0.16 0.17 0.38v3.2q0 0.11 0.04 0.21 0.04 0.1 0.12 0.17 0.08 0.08 0.18 0.12 0.1 0.04 0.21 0.04l3.89 0.01q0.23 0 0.39-0.16 0.16-0.16 0.17-0.38v-5.49l-6.4-5.08q-0.12-0.09-0.27-0.09-0.15 0-0.27 0.09zm10.12 3.46l-2.91-2.31v-4.64q0-0.16-0.12-0.28-0.12-0.12-0.29-0.12h-1.95q-0.17 0-0.29 0.12-0.12 0.12-0.12 0.28v2.43l-3.11-2.46c-0.3-0.24-0.67-0.37-1.06-0.37-0.39 0-0.76 0.13-1.06 0.37l-8.79 6.98q-0.06 0.05-0.1 0.12-0.04 0.07-0.05 0.15-0.01 0.08 0.02 0.16 0.02 0.07 0.08 0.13l0.88 1.04q0.05 0.06 0.13 0.1 0.07 0.04 0.15 0.05 0.09 0 0.16-0.02 0.08-0.02 0.15-0.07l8.16-6.49q0.12-0.09 0.27-0.09 0.15 0 0.27 0.09l8.16 6.49q0.07 0.05 0.15 0.07 0.08 0.02 0.16 0.02 0.08-0.01 0.15-0.05 0.08-0.04 0.13-0.1l0.89-1.04q0.05-0.06 0.07-0.13 0.03-0.08 0.02-0.16-0.01-0.08-0.05-0.15-0.04-0.07-0.1-0.12z"/>
</svg>