<svg width="20" height="15" viewBox="0 0 20 15" fill="none" xmlns="http://www.w3.org/2000/svg">
<path d="M9.73484 3.89139L3.3336 8.97622V14.4642C3.3336 14.6063 3.39212 14.7426 3.4963 14.8431C3.60048 14.9436 3.74178 15 3.88911 15L7.77978 14.9903C7.92663 14.9896 8.06722 14.9328 8.17079 14.8324C8.27437 14.732 8.33252 14.5961 8.33252 14.4545V11.2496C8.33252 11.1075 8.39104 10.9712 8.49522 10.8707C8.5994 10.7703 8.7407 10.7138 8.88803 10.7138H11.1101C11.2574 10.7138 11.3987 10.7703 11.5029 10.8707C11.6071 10.9712 11.6656 11.1075 11.6656 11.2496V14.4522C11.6654 14.5227 11.6796 14.5925 11.7074 14.6577C11.7352 14.7229 11.7761 14.7822 11.8277 14.8321C11.8793 14.882 11.9406 14.9216 12.0081 14.9487C12.0756 14.9757 12.148 14.9896 12.2211 14.9896L16.1104 15C16.2577 15 16.399 14.9436 16.5032 14.8431C16.6074 14.7426 16.6659 14.6063 16.6659 14.4642V8.97254L10.266 3.89139C10.1908 3.8329 10.0971 3.80101 10.0004 3.80101C9.90381 3.80101 9.81008 3.8329 9.73484 3.89139ZM19.8462 7.34747L16.9437 5.03996V0.401831C16.9437 0.295258 16.8998 0.193051 16.8216 0.117694C16.7435 0.0423357 16.6375 0 16.527 0H14.5827C14.4722 0 14.3663 0.0423357 14.2881 0.117694C14.21 0.193051 14.1661 0.295258 14.1661 0.401831V2.83324L11.0577 0.36667C10.7594 0.129918 10.385 0.000473271 9.99871 0.000473271C9.61239 0.000473271 9.23807 0.129918 8.93976 0.36667L0.151203 7.34747C0.109015 7.3811 0.0741102 7.42242 0.0484844 7.46907C0.0228586 7.51571 0.00701361 7.56677 0.00185477 7.61933C-0.00330407 7.67188 0.00232436 7.7249 0.0184184 7.77536C0.0345125 7.82581 0.0607569 7.87271 0.0956519 7.91338L0.981 8.95145C1.0158 8.99226 1.0586 9.02605 1.10696 9.05088C1.15532 9.07572 1.20828 9.09111 1.26282 9.09618C1.31735 9.10125 1.37239 9.0959 1.42477 9.08043C1.47716 9.06496 1.52587 9.03968 1.56811 9.00603L9.73484 2.51847C9.81008 2.45998 9.90381 2.42808 10.0004 2.42808C10.0971 2.42808 10.1908 2.45998 10.266 2.51847L18.4331 9.00603C18.4753 9.03968 18.5239 9.06499 18.5762 9.08052C18.6286 9.09604 18.6835 9.10147 18.738 9.09649C18.7925 9.09152 18.8455 9.07623 18.8938 9.05152C18.9422 9.0268 18.985 8.99314 19.0199 8.95245L19.9052 7.91439C19.9401 7.87348 19.9662 7.82634 19.9821 7.77566C19.998 7.72499 20.0034 7.67178 19.9979 7.6191C19.9924 7.56641 19.9762 7.5153 19.9502 7.46868C19.9241 7.42207 19.8888 7.38087 19.8462 7.34747Z" fill="black"/>
</svg>
