<svg version="1.2" xmlns="http://www.w3.org/2000/svg" viewBox="0 0 41 39" width="41" height="39">
	<style>
		.s0 { fill: #502cff } 
		.s1 { fill: #ffffff } 
	</style>
	<path class="s0" d="m37.24 28.16q3.76 0.94 3.76 4.54 0 2.98-2.05 4.34-2.04 1.32-5.55 1.32h-5.92v-19.24h5.31q3.57 0 5.56 1.25 1.99 1.24 1.99 3.73 0 1.6-0.89 2.65-0.86 1.03-2.21 1.41zm-4.28-5.28v3.73h0.3q0.94 0 1.27-0.47 0.33-0.49 0.33-1.49 0-1.77-1.57-1.77zm0.49 11.61q2 0 2-2.18 0-1.11-0.45-1.66-0.41-0.55-1.43-0.55h-0.61v4.39z"/>
	<path class="s0" d="m21.77 38.36l-0.55-3.81h-3.35l-0.55 3.81h-5.45l4.48-19.24h6.47l4.45 19.24zm-3.34-7.63h2.24l-1.14-7.76z"/>
	<path class="s0" d="m6.55 19.12v15.04h5.81l-0.55 4.2h-10.73v-19.24z"/>
	<path class="s1" d="m36.6 17.8q-0.77 0.61-1.82 0.91-1.05 0.34-2.07 0.34-2.44 0-3.63-1.36-1.18-1.38-1.18-3.67v-6.72h-1.25v-3.57h1.25v-3.12l5.25-0.61v3.73h2.68l-0.53 3.57h-2.15v6.66q0 0.47 0.22 0.72 0.22 0.25 0.58 0.25 0.44 0 0.99-0.31z"/>
	<path class="s1" d="m25.96 14.1q0 0.66 0.11 0.97 0.14 0.27 0.53 0.47l-1.05 3.4q-1.33-0.11-2.19-0.56-0.85-0.44-1.32-1.38-1.36 2.05-3.74 2.05-1.85 0-2.95-1.27-1.08-1.3-1.08-3.43 0-2.44 1.52-3.73 1.55-1.3 4.5-1.3h0.56v-0.42q0-1.24-0.31-1.66-0.27-0.41-1.21-0.41-1.14 0-3.07 0.72l-1.13-3.21q1.13-0.55 2.57-0.86 1.43-0.3 2.71-0.3 2.81 0 4.17 1.3 1.38 1.27 1.38 4.12zm-5.91 1.27q0.22 0 0.44-0.19 0.22-0.23 0.36-0.56v-2.54h-0.11q-0.75 0-1.08 0.44-0.33 0.42-0.33 1.33 0 0.74 0.19 1.13 0.19 0.39 0.53 0.39z"/>
	<path class="s1" d="m8.6 3.18q1.46 0 2.73 0.5 1.3 0.49 2.21 1.38l-1.82 2.76q-1.47-0.99-2.57-0.99-0.47 0-0.72 0.22-0.25 0.19-0.25 0.58 0 0.3 0.17 0.52 0.16 0.23 0.66 0.53 0.5 0.28 1.58 0.75 1.74 0.77 2.57 1.82 0.85 1.05 0.85 2.77 0 1.49-0.74 2.65-0.75 1.13-2.13 1.77-1.38 0.61-3.18 0.61-1.6 0-3.07-0.61-1.46-0.61-2.51-1.69l2.37-2.68q1.72 1.36 2.91 1.36 0.49 0 0.77-0.25 0.28-0.25 0.28-0.67 0-0.58-0.42-0.96-0.41-0.39-1.77-0.97-1.85-0.8-2.68-1.83-0.8-1.05-0.8-2.71 0-2.15 1.44-3.51 1.46-1.35 4.12-1.35z"/>
	<path class="s0" d="m39.92 32.7c0-1.01-0.26-1.72-0.69-2.24-0.41-0.5-1.06-0.92-2.05-1.2l-0.2-0.05-3.91-0.98 3.87-1.11q1.06-0.3 1.68-1.06h0.01c0.39-0.48 0.63-1.1 0.63-1.96 0-1.27-0.47-2.14-1.39-2.76l-0.1-0.06c-1.05-0.66-2.61-1.05-4.77-1.08h-0.21-4.23v17.08h4.84v1.08h-5.92v-19.24h5.31 0.22q3.41 0.04 5.34 1.25 1.99 1.24 1.99 3.73v0.1q-0.03 1.53-0.89 2.55-0.86 1.03-2.21 1.41 3.76 0.94 3.76 4.54 0 2.98-2.05 4.34l-0.12 0.08q-2.03 1.24-5.43 1.24v-1.08c2.21 0 3.83-0.42 4.96-1.15 0.99-0.66 1.56-1.72 1.56-3.43zm-12.65 5.66h-0.87v-3.76zm4.61-9.34h1.68v1.08h-0.6v4.39h0.49q1.93 0 1.99-2.05v-0.13q0-1.11-0.44-1.66-0.39-0.52-1.31-0.55h-0.13v-1.08c0.85 0 1.72 0.22 2.28 0.96 0.52 0.64 0.68 1.48 0.68 2.33v0.16c-0.02 0.82-0.23 1.6-0.78 2.2-0.6 0.66-1.43 0.9-2.29 0.9h-1.57zm0-7.21h1.41v1.08h-0.33v3.73h0.3q0.94 0 1.27-0.47 0.33-0.5 0.33-1.49 0-1.72-1.48-1.77h-0.09v-1.08c0.72 0 1.46 0.21 1.99 0.8 0.5 0.57 0.66 1.32 0.66 2.05 0 0.75-0.12 1.5-0.51 2.09l-0.01 0.01-0.01 0.01c-0.52 0.75-1.4 0.93-2.15 0.93h-1.38z"/>
	<path class="s0" d="m27.27 38.36h-5.5l-0.55-3.81h-3.35l-0.55 3.81h-5.45l4.48-19.24h6.47zm1.11 0h-0.9v-3.88zm-16.02-4.2l-1.02 4.2h-0.57l0.97-4.2zm0.88 3.12h3.15l0.55-3.81h5.22l0.55 3.81h3.21l-3.95-17.08h-4.75zm8.68-5.47h-4.74l1.28-9h2.14zm-3.49-1.08h2.24l-1.13-7.77z"/>
	<path class="s0" d="m6.55 19.12v15.04h5.81l-1.5 4.2h-9.78v-19.24zm7.04 13.96l-0.7 5.28h-0.37l0.58-5.28zm-11.43 4.2h8.7l0.27-2.04h-5.66v-15.04h-3.31zm-2.13-13.68l-0.03 0.22v-0.22z"/>
</svg>