<svg width="41" height="39" viewBox="0 0 41 39" fill="none" xmlns="http://www.w3.org/2000/svg">
<path d="M37.2404 28.1624C39.7468 28.789 41 30.3002 41 32.696C41 34.6864 40.3181 36.1331 38.9543 37.0361C37.5906 37.9207 35.7384 38.363 33.3979 38.363H27.4821V19.1228H32.7897C35.1671 19.1228 37.0192 19.5374 38.3462 20.3668C39.6731 21.1961 40.3365 22.4401 40.3365 24.0987C40.3365 25.1676 40.0417 26.0522 39.4519 26.7525C38.8806 27.4344 38.1434 27.9044 37.2404 28.1624ZM32.9556 22.8824V26.6143H33.2597C33.8863 26.6143 34.3101 26.4577 34.5313 26.1444C34.7524 25.8126 34.863 25.315 34.863 24.6516C34.863 23.4721 34.3378 22.8824 33.2873 22.8824H32.9556ZM33.4532 34.4929C34.7801 34.4929 35.4435 33.7649 35.4435 32.309C35.4435 31.5718 35.2961 31.0189 35.0012 30.6503C34.7248 30.2817 34.2456 30.0975 33.5637 30.0975H32.9556V34.4929H33.4532Z" fill="white"/>
<path d="M21.7707 38.363L21.2178 34.5481H17.8729L17.32 38.363H11.8741L16.3525 19.1228H22.8212L27.2719 38.363H21.7707ZM18.4258 30.7333H20.6649L19.5315 22.9653L18.4258 30.7333Z" fill="white"/>
<path d="M6.55335 19.1228V34.1611H12.3586L11.8057 38.363H1.07983V19.1228H6.55335Z" fill="white"/>
<path d="M36.6035 17.8028C36.0874 18.2082 35.4793 18.5123 34.779 18.715C34.0786 18.9362 33.3875 19.0467 32.7057 19.0467C31.0839 19.0467 29.8767 18.5952 29.0843 17.6922C28.2918 16.7707 27.8956 15.5452 27.8956 14.0155V7.29802H26.6516V3.73194H27.8956V0.608169L33.148 0V3.73194H35.8294L35.3042 7.29802H33.148V13.9602C33.148 14.2735 33.2217 14.5131 33.3691 14.679C33.5165 14.8448 33.7101 14.9278 33.9496 14.9278C34.2445 14.9278 34.5762 14.8264 34.9448 14.6237L36.6035 17.8028Z" fill="black"/>
<path d="M25.9616 14.0985C25.9616 14.5408 25.9985 14.8633 26.0722 15.066C26.1643 15.2503 26.3394 15.407 26.5974 15.536L25.547 18.9362C24.6623 18.8625 23.9344 18.6782 23.3631 18.3833C22.7918 18.0884 22.3495 17.6277 22.0362 17.0011C21.1331 18.3649 19.8891 19.0468 18.3042 19.0468C17.0695 19.0468 16.0835 18.6229 15.3463 17.7751C14.6276 16.9089 14.2682 15.7663 14.2682 14.3473C14.2682 12.7255 14.775 11.4815 15.7886 10.6153C16.8207 9.74914 18.3226 9.31605 20.2946 9.31605H20.8475V8.90139C20.8475 8.07207 20.7461 7.51919 20.5434 7.24275C20.3591 6.96631 19.9536 6.82809 19.327 6.82809C18.5714 6.82809 17.5486 7.06767 16.2586 7.54683L15.1252 4.34013C15.8808 3.97154 16.7377 3.68588 17.696 3.48316C18.6544 3.28044 19.5574 3.17908 20.4052 3.17908C22.285 3.17908 23.6764 3.61217 24.5794 4.47835C25.5009 5.3261 25.9616 6.69908 25.9616 8.59731V14.0985ZM20.0458 15.3701C20.1932 15.3701 20.3407 15.3056 20.4881 15.1766C20.6355 15.0292 20.7553 14.8449 20.8475 14.6237V12.0805H20.7369C20.2393 12.0805 19.8799 12.2279 19.6588 12.5228C19.4376 12.7992 19.327 13.2415 19.327 13.8497C19.327 14.3473 19.3915 14.7251 19.5206 14.9831C19.6496 15.2411 19.8246 15.3701 20.0458 15.3701Z" fill="black"/>
<path d="M8.59552 3.17908C9.57227 3.17908 10.4845 3.34494 11.3323 3.67667C12.1985 4.0084 12.9356 4.46913 13.5438 5.05887L11.7193 7.82327C10.7425 7.15982 9.88557 6.82809 9.1484 6.82809C8.8351 6.82809 8.59552 6.90181 8.42965 7.04924C8.26379 7.17825 8.18086 7.37176 8.18086 7.62977C8.18086 7.83249 8.23614 8.00757 8.34672 8.155C8.4573 8.30244 8.67845 8.47752 9.01018 8.68024C9.34191 8.86453 9.86714 9.11333 10.5859 9.42663C11.7469 9.94265 12.6039 10.5508 13.1568 11.2511C13.7281 11.9515 14.0137 12.8729 14.0137 14.0155C14.0137 15.0107 13.7649 15.8953 13.2674 16.6694C12.7698 17.425 12.0602 18.0147 11.1388 18.4386C10.2173 18.844 9.15761 19.0468 7.9597 19.0468C6.8908 19.0468 5.86797 18.844 4.89122 18.4386C3.91446 18.0331 3.07593 17.471 2.37561 16.7523L4.753 14.0708C5.89562 14.9739 6.86316 15.4254 7.65562 15.4254C7.98735 15.4254 8.24536 15.3425 8.42965 15.1766C8.61395 15.0107 8.70609 14.7896 8.70609 14.5131C8.70609 14.1261 8.56787 13.8036 8.29143 13.5456C8.01499 13.2876 7.42525 12.9651 6.52221 12.5781C5.28745 12.0436 4.39362 11.4354 3.84074 10.7535C3.30629 10.0532 3.03907 9.15019 3.03907 8.04443C3.03907 6.60694 3.51823 5.43667 4.47656 4.53364C5.45331 3.6306 6.8263 3.17908 8.59552 3.17908Z" fill="black"/>
<path d="M39.9201 32.6959C39.9201 31.6924 39.6616 30.9768 39.229 30.4551C38.8169 29.9581 38.1665 29.5404 37.1802 29.2634L36.9786 29.2101L33.0663 28.2319L36.9438 27.124C37.6515 26.9218 38.1995 26.5661 38.6243 26.0591L38.626 26.057C39.025 25.5832 39.2568 24.958 39.2568 24.0987C39.2568 22.8265 38.7932 21.9562 37.865 21.3411L37.7739 21.2825C36.7199 20.6237 35.1632 20.2278 33.0009 20.2037L32.7898 20.2026H28.5619V37.2832H33.3978V38.363H27.4821V19.1228H32.7898L33.011 19.1241C35.2823 19.1492 37.0607 19.5633 38.3461 20.3667C39.673 21.1961 40.3367 22.4401 40.3367 24.0987L40.3356 24.1983C40.3178 25.2227 40.0232 26.0741 39.4519 26.7526C38.8806 27.4344 38.1433 27.9043 37.2403 28.1623C39.7467 28.7889 40.9999 30.3002 41 32.6959C41 34.6863 40.3181 36.1332 38.9544 37.0362L38.8251 37.1178C37.4744 37.948 35.6652 38.363 33.3978 38.363V37.2832C35.6142 37.2832 37.2348 36.8625 38.3623 36.1327C39.3534 35.4745 39.9201 34.4115 39.9201 32.6959ZM27.272 38.363H26.4022V34.603L27.272 38.363ZM31.8757 29.0175H33.5638V30.0974H32.9555V34.4929H33.4533C34.7387 34.4928 35.4016 33.8096 35.4417 32.4433L35.4436 32.3089C35.4436 31.5718 35.2962 31.0189 35.0013 30.6504C34.7422 30.3048 34.3048 30.1213 33.6893 30.0997L33.5638 30.0974V29.0175C34.4053 29.0175 35.2791 29.2445 35.8443 29.9757C36.3575 30.6171 36.5234 31.4564 36.5234 32.3089L36.5211 32.472C36.4974 33.2858 36.2907 34.0745 35.7441 34.6743C35.1438 35.333 34.3103 35.5727 33.4533 35.5727H31.8757V29.0175ZM31.8757 21.8026H33.2873V22.8824H32.9555V26.6142H33.2597C33.8862 26.6142 34.3101 26.4576 34.5312 26.1443C34.7524 25.8126 34.863 25.315 34.863 24.6515C34.863 23.509 34.3701 22.9198 33.3843 22.8841L33.2873 22.8824V21.8026C34.0134 21.8026 34.7461 22.0122 35.2755 22.6066C35.7836 23.1771 35.9428 23.9242 35.9428 24.6515C35.9428 25.4009 35.8241 26.1517 35.4297 26.7433L35.4219 26.7553L35.4134 26.7671C34.8881 27.5113 34.0124 27.6941 33.2597 27.6941H31.8757V21.8026Z" fill="#2F05FF"/>
<path d="M27.2719 38.363H21.7706L21.2179 34.5481H17.8729L17.3201 38.363H11.8742L16.3524 19.1228H22.8212L27.2719 38.363ZM28.3803 38.363H27.482V34.48L28.3803 38.363ZM12.3585 34.1611L11.3383 38.363H10.7655L11.7435 34.1611H12.3585ZM13.2342 37.2832H16.3855L16.9383 33.4683H22.1524L22.7052 37.2832H25.9137L21.9626 20.2026H17.2098L13.2342 37.2832ZM21.9138 31.8131H17.1813L18.4626 22.813L20.6001 22.8095L21.9138 31.8131ZM18.4259 30.7332H20.6649L19.5317 22.9653L18.4259 30.7332Z" fill="#2F05FF"/>
<path d="M6.55331 19.1228V34.1611H12.3585L10.8588 38.363H1.07984V19.1228H6.55331ZM13.5898 33.0813L12.8949 38.363H12.5262L13.1037 33.0813H13.5898ZM2.15969 37.2832H10.8588L11.1275 35.241H5.47346V20.2026H2.15969V37.2832ZM0.031847 23.6012L0 23.8172V23.6012H0.031847Z" fill="#2F05FF"/>
</svg>
