<svg width="5" height="18" viewBox="0 0 5 18" fill="none" xmlns="http://www.w3.org/2000/svg">
<path d="M2.5 6.11111C3.88194 6.11111 5 7.22917 5 8.61111C5 9.99306 3.88194 11.1111 2.5 11.1111C1.11806 11.1111 0 9.99306 0 8.61111C0 7.22917 1.11806 6.11111 2.5 6.11111ZM0 2.5C0 3.88194 1.11806 5 2.5 5C3.88194 5 5 3.88194 5 2.5C5 1.11806 3.88194 0 2.5 0C1.11806 0 0 1.11806 0 2.5ZM0 14.7222C0 16.1042 1.11806 17.2222 2.5 17.2222C3.88194 17.2222 5 16.1042 5 14.7222C5 13.3403 3.88194 12.2222 2.5 12.2222C1.11806 12.2222 0 13.3403 0 14.7222Z" fill="black"/>
</svg>
