<svg version="1.2" xmlns="http://www.w3.org/2000/svg" viewBox="0 0 18 20" width="18" height="20">
	<style>
		.s0 { fill: #ffffff } 
	</style>
	<path class="s0" d="m0.48 7.5h17.04c0.26 0 0.48 0.21 0.48 0.47v10.15c0 1.04-0.86 1.88-1.93 1.88h-14.14c-1.07 0-1.93-0.84-1.93-1.88v-10.15c0-0.26 0.22-0.47 0.48-0.47zm17.52-1.72v-1.41c0-1.03-0.86-1.87-1.93-1.87h-1.93v-2.03c0-0.26-0.21-0.47-0.48-0.47h-1.61c-0.26 0-0.48 0.21-0.48 0.47v2.03h-5.14v-2.03c0-0.26-0.22-0.47-0.48-0.47h-1.61c-0.27 0-0.48 0.21-0.48 0.47v2.03h-1.93c-1.07 0-1.93 0.84-1.93 1.88v1.4c0 0.26 0.22 0.47 0.48 0.47h17.04c0.26 0 0.48-0.21 0.48-0.47z"/>
</svg>