<svg width="18" height="20" viewBox="0 0 18 20" fill="none" xmlns="http://www.w3.org/2000/svg">
<path d="M0.482143 7.5H17.5179C17.783 7.5 18 7.71094 18 7.96875V18.125C18 19.1602 17.1362 20 16.0714 20H1.92857C0.863839 20 0 19.1602 0 18.125V7.96875C0 7.71094 0.216964 7.5 0.482143 7.5ZM18 5.78125V4.375C18 3.33984 17.1362 2.5 16.0714 2.5H14.1429V0.46875C14.1429 0.210938 13.9259 0 13.6607 0H12.0536C11.7884 0 11.5714 0.210938 11.5714 0.46875V2.5H6.42857V0.46875C6.42857 0.210938 6.21161 0 5.94643 0H4.33929C4.07411 0 3.85714 0.210938 3.85714 0.46875V2.5H1.92857C0.863839 2.5 0 3.33984 0 4.375V5.78125C0 6.03906 0.216964 6.25 0.482143 6.25H17.5179C17.783 6.25 18 6.03906 18 5.78125Z" fill="black"/>
</svg>
