<svg xmlns="http://www.w3.org/2000/svg" width="512" height="512" fill="none"><path fill="#fff" d="M465.051 375.86C496.35 384.223 512 404.392 512 436.367c0 26.564-8.515 45.872-25.546 57.924C469.424 506.097 446.295 512 417.067 512h-73.876V255.216h66.281c29.688 0 52.817 5.534 69.388 16.602 16.57 11.069 24.855 27.671 24.855 49.808 0 14.265-3.682 26.072-11.047 35.418-7.134 9.101-16.34 15.373-27.617 18.816Zm-53.508-70.468v49.807h3.797c7.825 0 13.119-2.09 15.88-6.272 2.762-4.427 4.143-11.068 4.143-19.922 0-15.742-6.559-23.613-19.677-23.613h-4.143Zm6.214 154.956c16.57 0 24.855-9.715 24.855-29.146 0-9.839-1.841-17.218-5.523-22.137-3.452-4.919-9.436-7.379-17.951-7.379h-7.595v58.662h6.214ZM271.869 512l-6.904-50.914h-41.771L216.29 512h-68.007l55.924-256.784h80.78L340.567 512h-68.698Zm-41.771-101.828h27.963l-14.154-103.673-13.809 103.673ZM81.837 255.216v200.705h72.495L147.428 512H13.485V255.216h68.352Z"/><path fill="#000" d="M457.097 237.599c-6.444 5.411-14.038 9.469-22.784 12.175-8.745 2.952-17.376 4.427-25.891 4.427-20.252 0-35.327-6.026-45.223-18.078-9.896-12.298-14.844-28.654-14.844-49.069V97.401H332.82V49.807h15.535V8.117L413.946 0v49.807h33.485l-6.559 47.594h-26.926v88.915c0 4.181.92 7.379 2.761 9.592 1.841 2.214 4.258 3.321 7.25 3.321 3.682 0 7.825-1.353 12.427-4.058l20.713 42.428Zm-132.893-49.438c0 5.903.46 10.207 1.38 12.913 1.151 2.459 3.338 4.55 6.56 6.272l-13.119 45.38c-11.046-.984-20.137-3.444-27.271-7.379-7.135-3.936-12.658-10.085-16.571-18.447-11.277 18.201-26.811 27.301-46.603 27.301-15.42 0-27.733-5.657-36.938-16.971-8.976-11.56-13.464-26.81-13.464-45.749 0-21.644 6.329-38.247 18.987-49.807 12.888-11.56 31.645-17.34 56.27-17.34h6.904V118.8c0-11.069-1.266-18.447-3.797-22.137-2.302-3.69-7.365-5.534-15.19-5.534-9.435 0-22.208 3.197-38.318 9.592L188.88 57.924c9.436-4.92 20.137-8.731 32.105-11.437 11.967-2.706 23.244-4.058 33.831-4.058 23.474 0 40.85 5.78 52.127 17.34 11.507 11.314 17.261 29.638 17.261 54.972v73.42Zm-73.876 16.971c1.841 0 3.682-.861 5.523-2.582 1.842-1.968 3.337-4.428 4.488-7.379v-33.943h-1.381c-6.214 0-10.701 1.968-13.463 5.903-2.762 3.69-4.143 9.593-4.143 17.709 0 6.641.806 11.684 2.417 15.127 1.611 3.443 3.797 5.165 6.559 5.165ZM107.34 42.429c12.197 0 23.589 2.213 34.176 6.64 10.817 4.428 20.022 10.577 27.617 18.448l-22.784 36.894c-12.198-8.855-22.899-13.282-32.105-13.282-3.912 0-6.904.984-8.975 2.951-2.072 1.722-3.107 4.305-3.107 7.748 0 2.706.69 5.042 2.071 7.01 1.381 1.968 4.143 4.305 8.285 7.01 4.143 2.46 10.702 5.78 19.677 9.962 14.499 6.886 25.201 15.003 32.105 24.35 7.134 9.346 10.702 21.644 10.702 36.894 0 13.282-3.107 25.088-9.321 35.418-6.214 10.085-15.074 17.956-26.582 23.613-11.507 5.411-24.74 8.116-39.699 8.116-13.348 0-26.121-2.705-38.319-8.116-12.197-5.411-22.669-12.913-31.414-22.506l29.688-35.787c14.269 12.052 26.352 18.078 36.248 18.078 4.142 0 7.364-1.107 9.666-3.32 2.301-2.214 3.452-5.166 3.452-8.855 0-5.165-1.726-9.47-5.178-12.913-3.453-3.444-10.817-7.748-22.094-12.913-15.42-7.133-26.581-15.25-33.486-24.35-6.674-9.347-10.011-21.399-10.011-36.157 0-19.185 5.984-34.803 17.951-46.855 12.198-12.052 29.343-18.078 51.437-18.078Z"/><path fill="#2F05FF" d="M498.515 436.366c-.001-13.394-3.228-22.944-8.631-29.907-5.146-6.632-13.268-12.208-25.585-15.904l-2.518-.712-48.856-13.055 48.422-14.786c8.838-2.699 15.681-7.446 20.986-14.212l.021-.028c4.983-6.324 7.877-14.668 7.877-26.136 0-16.98-5.789-28.594-17.38-36.803l-1.138-.783c-13.162-8.792-32.602-14.076-59.604-14.398l-2.637-.014h-52.796v227.96h60.389V512h-73.874V255.216h66.281l2.763.017c28.363.335 50.571 5.863 66.624 16.585 16.57 11.068 24.857 27.672 24.857 49.808l-.013 1.329c-.223 13.671-3.901 25.035-11.035 34.09-7.135 9.1-16.341 15.371-27.618 18.814 31.299 8.363 46.949 28.533 46.949 60.507 0 26.564-8.514 45.874-25.544 57.926l-1.615 1.089C467.972 506.461 445.38 512 417.065 512v-14.412c27.678 0 47.916-5.614 61.997-15.355 12.376-8.784 19.453-22.97 19.453-45.867ZM340.567 512h-10.861v-50.182L340.567 512Zm57.49-124.727h21.081v14.412h-7.596v58.663h6.216c16.052 0 24.33-9.118 24.831-27.354l.024-1.793c0-9.838-1.841-17.217-5.523-22.136-3.236-4.611-8.699-7.061-16.385-7.349l-1.567-.031v-14.412c10.508 0 21.421 3.03 28.479 12.788 6.408 8.56 8.481 19.762 8.481 31.14l-.029 2.176c-.296 10.861-2.877 21.388-9.703 29.392-7.497 8.791-17.906 11.991-28.608 11.991h-19.701v-87.487Zm0-96.292h17.628v14.412h-4.143v49.805h3.798c7.825 0 13.117-2.09 15.879-6.271 2.762-4.427 4.143-11.069 4.143-19.923 0-15.249-6.155-23.111-18.465-23.588l-1.212-.023v-14.412c9.068 0 18.218 2.798 24.829 10.73 6.345 7.615 8.333 17.586 8.333 27.293 0 10.001-1.483 20.022-6.408 27.917l-.097.161-.106.157c-6.56 9.932-17.496 12.371-26.896 12.371h-17.283v-78.629Z"/><path fill="#2F05FF" d="M340.567 512h-68.699l-6.903-50.914h-41.772L216.29 512h-68.006l55.922-256.784h80.781L340.567 512Zm13.841 0H343.19v-51.823L354.408 512Zm-200.077-56.079L141.591 512h-7.153l12.213-56.079h7.68Zm10.935 41.667h39.354l6.903-50.914h65.112l6.903 50.914h40.068l-49.341-227.96h-59.352l-49.647 227.96Zm108.39-73.005h-59.099l16-120.116 26.694-.048 16.405 120.164Zm-43.557-14.411h27.96l-14.151-103.673-13.809 103.673Z"/><path fill="#2F05FF" d="M81.836 255.216v200.705h72.495L135.602 512H13.485V255.216h68.351Zm87.871 186.293L161.029 512h-4.604l7.211-70.491h6.071ZM26.97 497.588h108.632l3.356-27.256H68.352V269.628H26.97v227.96ZM.398 314.986 0 317.868v-2.882h.398Z"/></svg>